<?xml version="1.0" encoding="UTF-8" standalone="no"?>
<!DOCTYPE svg PUBLIC "-//W3C//DTD SVG 1.1//EN" "http://www.w3.org/Graphics/SVG/1.1/DTD/svg11.dtd">
<svg width="100%" height="100%" viewBox="0 0 1920 1080" version="1.1" xmlns="http://www.w3.org/2000/svg" xmlns:xlink="http://www.w3.org/1999/xlink" xml:space="preserve" xmlns:serif="http://www.serif.com/" style="fill-rule:evenodd;clip-rule:evenodd;stroke-linejoin:round;stroke-miterlimit:2;">
    <g transform="matrix(4.16667,0,0,4.16667,-292.736,99.6795)">
        <path d="M301.689,25.405L303.365,54.948C303.402,55.6 303.961,56.099 304.613,56.062C305.265,56.025 305.764,55.466 305.727,54.814L304.051,25.271C304.014,24.619 303.455,24.12 302.803,24.157C302.151,24.194 301.652,24.753 301.689,25.405Z" style="fill:rgb(232,66,152);fill-rule:nonzero;"/>
        <path d="M278.945,58.133L282.399,64.493C282.711,65.067 283.429,65.28 284.003,64.968C284.577,64.656 284.79,63.938 284.478,63.364L281.024,57.004C280.712,56.43 279.994,56.217 279.42,56.529C278.846,56.841 278.633,57.559 278.945,58.133Z" style="fill:rgb(232,66,152);fill-rule:nonzero;"/>
        <path d="M262.299,27.48L275.327,51.47C275.639,52.044 276.357,52.257 276.931,51.945C277.505,51.633 277.717,50.915 277.406,50.341L264.378,26.351C264.066,25.777 263.348,25.564 262.774,25.876C262.2,26.188 261.987,26.906 262.299,27.48Z" style="fill:rgb(232,66,152);fill-rule:nonzero;"/>
        <path d="M292.93,61.98L293.903,65.467C294.078,66.096 294.731,66.464 295.36,66.289C295.989,66.113 296.357,65.461 296.181,64.832L295.209,61.345C295.033,60.716 294.381,60.348 293.752,60.523C293.122,60.699 292.755,61.351 292.93,61.98Z" style="fill:rgb(232,66,152);fill-rule:nonzero;"/>
        <path d="M284.991,33.501L291.039,55.199C291.215,55.828 291.867,56.196 292.496,56.02C293.125,55.845 293.493,55.193 293.318,54.564L287.27,32.866C287.094,32.237 286.442,31.869 285.813,32.044C285.184,32.219 284.816,32.872 284.991,33.501Z" style="fill:rgb(232,66,152);fill-rule:nonzero;"/>
        <path d="M346.583,36.614L332.347,62.555C332.033,63.128 332.242,63.847 332.815,64.161C333.387,64.476 334.106,64.266 334.421,63.693L348.656,37.752C348.971,37.18 348.761,36.461 348.189,36.146C347.616,35.832 346.897,36.042 346.583,36.614Z" style="fill:rgb(232,66,152);fill-rule:nonzero;"/>
        <path d="M311.589,52.315L311.148,59.539C311.108,60.191 311.604,60.752 312.256,60.792C312.908,60.832 313.469,60.335 313.509,59.683L313.95,52.459C313.99,51.807 313.494,51.246 312.842,51.207C312.19,51.167 311.629,51.663 311.589,52.315Z" style="fill:rgb(232,66,152);fill-rule:nonzero;"/>
        <path d="M313.717,17.498L312.051,44.747C312.011,45.399 312.508,45.96 313.16,46C313.812,46.04 314.373,45.543 314.412,44.891L316.078,17.643C316.118,16.991 315.622,16.43 314.97,16.39C314.318,16.35 313.757,16.846 313.717,17.498Z" style="fill:rgb(232,66,152);fill-rule:nonzero;"/>
        <path d="M321.409,62.988L320.387,66.461C320.202,67.087 320.561,67.745 321.187,67.929C321.814,68.114 322.471,67.756 322.656,67.129L323.678,63.657C323.863,63.03 323.505,62.373 322.878,62.188C322.251,62.004 321.594,62.362 321.409,62.988Z" style="fill:rgb(232,66,152);fill-rule:nonzero;"/>
        <path d="M329.77,34.631L323.401,56.236C323.216,56.863 323.574,57.52 324.201,57.705C324.827,57.89 325.485,57.532 325.67,56.905L332.039,35.3C332.223,34.673 331.865,34.015 331.239,33.831C330.612,33.646 329.954,34.004 329.77,34.631Z" style="fill:rgb(232,66,152);fill-rule:nonzero;"/>
        <path d="M377.593,84.353L349.755,94.385C349.141,94.606 348.822,95.284 349.043,95.898C349.265,96.513 349.943,96.832 350.557,96.61L378.395,86.579C379.009,86.357 379.328,85.68 379.106,85.065C378.885,84.451 378.207,84.132 377.593,84.353Z" style="fill:rgb(232,66,152);fill-rule:nonzero;"/>
        <path d="M339.737,71.889L334.626,77.013C334.165,77.475 334.166,78.224 334.629,78.685C335.091,79.147 335.84,79.146 336.301,78.683L341.412,73.559C341.873,73.097 341.872,72.348 341.41,71.887C340.947,71.425 340.198,71.426 339.737,71.889Z" style="fill:rgb(232,66,152);fill-rule:nonzero;"/>
        <path d="M364.37,47.19L345.091,66.519C344.63,66.982 344.631,67.73 345.093,68.192C345.556,68.653 346.305,68.652 346.766,68.19L366.044,48.861C366.506,48.398 366.505,47.65 366.042,47.188C365.58,46.727 364.831,46.728 364.37,47.19Z" style="fill:rgb(232,66,152);fill-rule:nonzero;"/>
        <path d="M340.038,86.389L336.973,88.316C336.42,88.664 336.254,89.394 336.602,89.947C336.949,90.5 337.68,90.666 338.233,90.319L341.297,88.391C341.85,88.043 342.017,87.313 341.669,86.76C341.321,86.207 340.591,86.041 340.038,86.389Z" style="fill:rgb(232,66,152);fill-rule:nonzero;"/>
        <path d="M365.07,70.658L345.999,82.644C345.446,82.991 345.279,83.721 345.627,84.274C345.975,84.827 346.705,84.994 347.258,84.646L366.328,72.66C366.882,72.313 367.048,71.583 366.701,71.03C366.353,70.477 365.623,70.31 365.07,70.658Z" style="fill:rgb(232,66,152);fill-rule:nonzero;"/>
        <path d="M379.653,130.579L350.73,124.333C350.091,124.195 349.462,124.601 349.324,125.239C349.186,125.877 349.592,126.507 350.23,126.645L379.154,132.891C379.793,133.029 380.422,132.623 380.56,131.984C380.698,131.346 380.292,130.717 379.653,130.579Z" style="fill:rgb(232,66,152);fill-rule:nonzero;"/>
        <path d="M354.624,101.517L347.574,103.155C346.937,103.302 346.541,103.938 346.689,104.574C346.837,105.21 347.473,105.606 348.109,105.458L355.159,103.821C355.795,103.673 356.191,103.038 356.044,102.401C355.896,101.765 355.26,101.369 354.624,101.517Z" style="fill:rgb(232,66,152);fill-rule:nonzero;"/>
        <path d="M388.601,93.627L362.01,99.802C361.373,99.95 360.977,100.585 361.125,101.221C361.273,101.857 361.909,102.253 362.545,102.105L389.136,95.931C389.772,95.783 390.168,95.147 390.021,94.511C389.873,93.875 389.237,93.479 388.601,93.627Z" style="fill:rgb(232,66,152);fill-rule:nonzero;"/>
        <path d="M347.195,113.972L343.576,113.983C342.922,113.985 342.394,114.516 342.396,115.169C342.398,115.823 342.929,116.351 343.583,116.349L347.202,116.338C347.855,116.336 348.383,115.805 348.381,115.152C348.379,114.499 347.848,113.97 347.195,113.972Z" style="fill:rgb(232,66,152);fill-rule:nonzero;"/>
        <path d="M376.759,113.898L354.235,113.955C353.582,113.957 353.053,114.488 353.055,115.141C353.057,115.794 353.588,116.323 354.241,116.321L376.765,116.264C377.418,116.262 377.947,115.731 377.945,115.078C377.943,114.425 377.412,113.896 376.759,113.898Z" style="fill:rgb(232,66,152);fill-rule:nonzero;"/>
        <path d="M225.265,84.7L253.322,94.101C253.941,94.308 254.612,93.974 254.819,93.355C255.027,92.736 254.693,92.065 254.073,91.858L226.016,82.457C225.397,82.25 224.727,82.584 224.519,83.203C224.312,83.822 224.646,84.493 225.265,84.7Z" style="fill:rgb(232,66,152);fill-rule:nonzero;"/>
        <path d="M247.223,117.96L254.411,117.111C255.06,117.034 255.524,116.446 255.447,115.798C255.37,115.149 254.782,114.685 254.134,114.762L246.945,115.611C246.297,115.688 245.833,116.276 245.909,116.924C245.986,117.573 246.574,118.037 247.223,117.96Z" style="fill:rgb(232,66,152);fill-rule:nonzero;"/>
        <path d="M212.583,122.051L239.693,118.85C240.342,118.773 240.805,118.185 240.729,117.536C240.652,116.888 240.064,116.424 239.415,116.5L212.306,119.701C211.657,119.778 211.193,120.366 211.27,121.015C211.346,121.663 211.934,122.127 212.583,122.051Z" style="fill:rgb(232,66,152);fill-rule:nonzero;"/>
        <path d="M255.981,106.399L259.581,106.79C260.23,106.86 260.814,106.391 260.885,105.742C260.954,105.092 260.486,104.509 259.837,104.438L256.236,104.048C255.587,103.977 255.003,104.447 254.933,105.096C254.863,105.745 255.332,106.329 255.981,106.399Z" style="fill:rgb(232,66,152);fill-rule:nonzero;"/>
        <path d="M226.59,103.21L248.984,105.64C249.633,105.71 250.217,105.241 250.287,104.591C250.358,103.942 249.888,103.358 249.239,103.288L226.845,100.859C226.196,100.788 225.612,101.258 225.542,101.907C225.471,102.556 225.941,103.14 226.59,103.21Z" style="fill:rgb(232,66,152);fill-rule:nonzero;"/>
        <path d="M252.324,47.165L271.135,70.007C271.551,70.511 272.296,70.583 272.8,70.168C273.304,69.753 273.377,69.008 272.961,68.503L254.15,45.662C253.734,45.157 252.989,45.085 252.485,45.5C251.981,45.916 251.909,46.661 252.324,47.165Z" style="fill:rgb(232,66,152);fill-rule:nonzero;"/>
        <path d="M253.927,85.487L260.472,88.575C261.064,88.853 261.769,88.601 262.048,88.01C262.326,87.419 262.073,86.714 261.483,86.436L254.936,83.347C254.345,83.069 253.641,83.321 253.362,83.912C253.083,84.503 253.336,85.208 253.927,85.487Z" style="fill:rgb(232,66,152);fill-rule:nonzero;"/>
        <path d="M222.383,70.598L247.07,82.25C247.661,82.529 248.365,82.276 248.644,81.685C248.923,81.095 248.67,80.39 248.08,80.111L223.393,68.459C222.802,68.18 222.097,68.433 221.818,69.023C221.539,69.614 221.792,70.319 222.383,70.598Z" style="fill:rgb(232,66,152);fill-rule:nonzero;"/>
        <path d="M267.481,80.325L270.327,82.562C270.841,82.966 271.584,82.877 271.988,82.363C272.392,81.849 272.302,81.106 271.789,80.702L268.943,78.466C268.429,78.062 267.686,78.151 267.282,78.665C266.878,79.178 266.967,79.922 267.481,80.325Z" style="fill:rgb(232,66,152);fill-rule:nonzero;"/>
        <path d="M244.247,62.044L261.949,75.971C262.462,76.375 263.206,76.287 263.61,75.773C264.014,75.26 263.925,74.516 263.411,74.112L245.709,60.185C245.196,59.781 244.452,59.869 244.048,60.383C243.645,60.896 243.733,61.64 244.247,62.044Z" style="fill:rgb(232,66,152);fill-rule:nonzero;"/>
        <path d="M342.654,178.739L328.826,152.577C328.521,151.999 327.806,151.778 327.228,152.083C326.651,152.389 326.43,153.104 326.735,153.682L340.563,179.844C340.868,180.422 341.583,180.642 342.161,180.337C342.739,180.032 342.959,179.316 342.654,178.739Z" style="fill:rgb(232,66,152);fill-rule:nonzero;"/>
        <path d="M349.701,139.511L343.911,135.167C343.389,134.775 342.647,134.88 342.255,135.403C341.863,135.925 341.969,136.667 342.491,137.059L348.281,141.403C348.803,141.795 349.545,141.689 349.937,141.167C350.329,140.644 350.223,139.903 349.701,139.511Z" style="fill:rgb(232,66,152);fill-rule:nonzero;"/>
        <path d="M377.601,160.447L355.765,144.061C355.242,143.669 354.501,143.775 354.109,144.297C353.717,144.82 353.822,145.561 354.345,145.953L376.181,162.338C376.704,162.73 377.445,162.625 377.837,162.102C378.229,161.58 378.123,160.838 377.601,160.447Z" style="fill:rgb(232,66,152);fill-rule:nonzero;"/>
        <path d="M335.384,141.838L333.048,139.073C332.626,138.574 331.88,138.511 331.381,138.933C330.882,139.354 330.819,140.101 331.241,140.6L333.577,143.365C333.998,143.864 334.745,143.927 335.244,143.505C335.743,143.083 335.805,142.337 335.384,141.838Z" style="fill:rgb(232,66,152);fill-rule:nonzero;"/>
        <path d="M354.463,164.423L339.927,147.216C339.506,146.717 338.76,146.654 338.261,147.076C337.762,147.497 337.699,148.244 338.12,148.743L352.656,165.949C353.078,166.448 353.824,166.511 354.323,166.089C354.822,165.668 354.885,164.922 354.463,164.423Z" style="fill:rgb(232,66,152);fill-rule:nonzero;"/>
        <path d="M297.171,187.245L299.309,157.733C299.357,157.081 298.867,156.515 298.215,156.468C297.564,156.42 296.997,156.91 296.95,157.562L294.812,187.074C294.764,187.726 295.254,188.292 295.906,188.339C296.557,188.386 297.124,187.896 297.171,187.245Z" style="fill:rgb(232,66,152);fill-rule:nonzero;"/>
        <path d="M322.446,158.397L319.838,151.645C319.603,151.035 318.918,150.732 318.309,150.967C317.699,151.203 317.396,151.887 317.631,152.497L320.239,159.249C320.474,159.859 321.159,160.162 321.768,159.927C322.378,159.691 322.681,159.006 322.446,158.397Z" style="fill:rgb(232,66,152);fill-rule:nonzero;"/>
        <path d="M335.011,190.936L325.177,165.469C324.942,164.86 324.257,164.557 323.648,164.792C323.039,165.027 322.735,165.712 322.971,166.322L332.804,191.788C333.04,192.397 333.724,192.7 334.334,192.465C334.943,192.23 335.246,191.545 335.011,190.936Z" style="fill:rgb(232,66,152);fill-rule:nonzero;"/>
        <path d="M309.073,152.782L308.556,149.2C308.463,148.553 307.863,148.105 307.216,148.198C306.57,148.292 306.121,148.891 306.215,149.538L306.732,153.121C306.825,153.767 307.425,154.216 308.071,154.122C308.718,154.029 309.166,153.429 309.073,152.782Z" style="fill:rgb(232,66,152);fill-rule:nonzero;"/>
        <path d="M313.282,182.046L310.074,159.751C309.981,159.104 309.381,158.656 308.735,158.749C308.088,158.842 307.64,159.441 307.733,160.088L310.941,182.383C311.034,183.029 311.633,183.478 312.28,183.385C312.926,183.292 313.375,182.692 313.282,182.046Z" style="fill:rgb(232,66,152);fill-rule:nonzero;"/>
        <path d="M246.129,166.303L266.955,145.282C267.415,144.818 267.412,144.069 266.948,143.609C266.484,143.15 265.735,143.153 265.275,143.617L244.449,164.638C243.989,165.102 243.993,165.851 244.457,166.311C244.921,166.771 245.669,166.767 246.129,166.303Z" style="fill:rgb(232,66,152);fill-rule:nonzero;"/>
        <path d="M285.668,161.291L288.081,154.466C288.299,153.851 287.976,153.175 287.36,152.957C286.744,152.739 286.068,153.062 285.851,153.678L283.438,160.502C283.22,161.118 283.543,161.794 284.159,162.011C284.775,162.229 285.451,161.906 285.668,161.291Z" style="fill:rgb(232,66,152);fill-rule:nonzero;"/>
        <path d="M274.04,194.177L283.141,168.438C283.359,167.823 283.036,167.147 282.42,166.929C281.804,166.711 281.129,167.034 280.911,167.65L271.81,193.389C271.592,194.005 271.915,194.68 272.531,194.898C273.146,195.116 273.822,194.793 274.04,194.177Z" style="fill:rgb(232,66,152);fill-rule:nonzero;"/>
        <path d="M279.164,148.326L281.104,145.27C281.454,144.719 281.291,143.988 280.739,143.637C280.188,143.288 279.457,143.451 279.107,144.002L277.167,147.058C276.817,147.61 276.98,148.341 277.532,148.691C278.083,149.041 278.814,148.878 279.164,148.326Z" style="fill:rgb(232,66,152);fill-rule:nonzero;"/>
        <path d="M263.322,173.288L275.392,154.27C275.742,153.719 275.579,152.988 275.027,152.638C274.476,152.288 273.745,152.451 273.395,153.003L261.325,172.021C260.975,172.573 261.138,173.303 261.69,173.653C262.241,174.003 262.972,173.84 263.322,173.288Z" style="fill:rgb(232,66,152);fill-rule:nonzero;"/>
        <path d="M259.493,140.934L265.156,136.426C265.667,136.019 265.752,135.275 265.345,134.764C264.938,134.253 264.194,134.168 263.683,134.575L258.019,139.084C257.509,139.491 257.424,140.235 257.832,140.746C258.238,141.257 258.983,141.341 259.493,140.934Z" style="fill:rgb(232,66,152);fill-rule:nonzero;"/>
        <path d="M232.204,162.66L253.562,145.657C254.073,145.25 254.157,144.506 253.75,143.995C253.344,143.484 252.6,143.399 252.089,143.806L230.731,160.809C230.22,161.216 230.136,161.96 230.542,162.471C230.949,162.982 231.693,163.066 232.204,162.66Z" style="fill:rgb(232,66,152);fill-rule:nonzero;"/>
        <path d="M260.849,126.495L264.113,124.929C264.702,124.647 264.951,123.94 264.668,123.351C264.386,122.762 263.68,122.514 263.091,122.796L259.825,124.362C259.237,124.644 258.989,125.351 259.271,125.939C259.553,126.529 260.26,126.777 260.849,126.495Z" style="fill:rgb(232,66,152);fill-rule:nonzero;"/>
        <path d="M234.186,139.267L254.499,129.535C255.088,129.252 255.337,128.546 255.055,127.957C254.773,127.368 254.066,127.119 253.477,127.402L233.164,137.134C232.575,137.416 232.326,138.122 232.608,138.711C232.89,139.3 233.597,139.549 234.186,139.267Z" style="fill:rgb(232,66,152);fill-rule:nonzero;"/>
        <path d="M294.05,69.095L297.41,82.401C297.49,82.717 297.812,82.909 298.128,82.829C298.445,82.749 298.637,82.427 298.557,82.111L295.196,68.805C295.116,68.488 294.795,68.297 294.478,68.377C294.162,68.457 293.97,68.778 294.05,69.095Z" style="fill:rgb(232,66,152);fill-rule:nonzero;"/>
        <path d="M286.579,86.015L288.711,88.607C288.919,88.859 289.291,88.895 289.544,88.688C289.796,88.48 289.832,88.108 289.625,87.856L287.493,85.264C287.285,85.012 286.913,84.975 286.66,85.183C286.408,85.39 286.372,85.763 286.579,86.015Z" style="fill:rgb(232,66,152);fill-rule:nonzero;"/>
        <path d="M276.302,73.519L284.345,83.299C284.553,83.551 284.926,83.587 285.178,83.38C285.43,83.173 285.466,82.8 285.259,82.548L277.216,72.768C277.009,72.516 276.636,72.48 276.384,72.687C276.131,72.894 276.095,73.267 276.302,73.519Z" style="fill:rgb(232,66,152);fill-rule:nonzero;"/>
        <path d="M293.28,86.528L294.03,88.031C294.176,88.323 294.531,88.442 294.823,88.296C295.115,88.15 295.234,87.795 295.088,87.503L294.338,85.999C294.192,85.707 293.837,85.589 293.545,85.734C293.253,85.88 293.134,86.235 293.28,86.528Z" style="fill:rgb(232,66,152);fill-rule:nonzero;"/>
        <path d="M287.162,74.259L291.824,83.607C291.97,83.899 292.325,84.018 292.617,83.872C292.91,83.726 293.028,83.371 292.883,83.079L288.22,73.73C288.074,73.438 287.719,73.32 287.427,73.465C287.135,73.611 287.016,73.966 287.162,74.259Z" style="fill:rgb(232,66,152);fill-rule:nonzero;"/>
        <path d="M315.479,70.228L311.278,83.292C311.178,83.603 311.349,83.936 311.66,84.036C311.971,84.136 312.304,83.965 312.404,83.655L316.605,70.59C316.705,70.279 316.534,69.946 316.223,69.846C315.912,69.746 315.579,69.917 315.479,70.228Z" style="fill:rgb(232,66,152);fill-rule:nonzero;"/>
        <path d="M300.923,80.472L301.358,83.801C301.4,84.125 301.697,84.354 302.021,84.311C302.345,84.269 302.573,83.972 302.531,83.648L302.096,80.319C302.053,79.995 301.756,79.767 301.433,79.81C301.109,79.852 300.88,80.149 300.923,80.472Z" style="fill:rgb(232,66,152);fill-rule:nonzero;"/>
        <path d="M298.831,64.432L300.467,76.986C300.51,77.31 300.806,77.538 301.13,77.496C301.454,77.454 301.682,77.157 301.64,76.833L300.003,64.279C299.961,63.956 299.664,63.727 299.34,63.769C299.017,63.812 298.788,64.108 298.831,64.432Z" style="fill:rgb(232,66,152);fill-rule:nonzero;"/>
        <path d="M306.334,84.459L306.173,86.132C306.142,86.457 306.38,86.746 306.705,86.778C307.03,86.809 307.319,86.571 307.35,86.245L307.511,84.572C307.542,84.247 307.304,83.958 306.979,83.927C306.654,83.896 306.365,84.134 306.334,84.459Z" style="fill:rgb(232,66,152);fill-rule:nonzero;"/>
        <path d="M307.647,70.813L306.646,81.211C306.615,81.536 306.853,81.825 307.178,81.857C307.503,81.888 307.792,81.65 307.823,81.324L308.824,70.926C308.855,70.601 308.617,70.312 308.292,70.281C307.967,70.249 307.678,70.488 307.647,70.813Z" style="fill:rgb(232,66,152);fill-rule:nonzero;"/>
        <path d="M333.818,89.216L322.022,96.232C321.741,96.399 321.649,96.762 321.816,97.043C321.983,97.324 322.346,97.416 322.626,97.249L334.422,90.232C334.703,90.065 334.795,89.702 334.628,89.422C334.461,89.141 334.098,89.049 333.818,89.216Z" style="fill:rgb(232,66,152);fill-rule:nonzero;"/>
        <path d="M315.47,86.882L313.592,89.664C313.409,89.935 313.48,90.302 313.751,90.485C314.022,90.668 314.389,90.596 314.572,90.326L316.45,87.543C316.633,87.272 316.561,86.905 316.291,86.722C316.02,86.539 315.652,86.611 315.47,86.882Z" style="fill:rgb(232,66,152);fill-rule:nonzero;"/>
        <path d="M324.514,73.469L317.434,83.967C317.251,84.238 317.323,84.605 317.594,84.788C317.864,84.971 318.232,84.899 318.415,84.628L325.494,74.13C325.677,73.86 325.605,73.492 325.334,73.309C325.064,73.127 324.696,73.198 324.514,73.469Z" style="fill:rgb(232,66,152);fill-rule:nonzero;"/>
        <path d="M316.888,93.45L315.661,94.597C315.422,94.82 315.41,95.194 315.633,95.433C315.856,95.671 316.23,95.684 316.469,95.461L317.696,94.314C317.934,94.091 317.947,93.717 317.724,93.478C317.501,93.239 317.127,93.227 316.888,93.45Z" style="fill:rgb(232,66,152);fill-rule:nonzero;"/>
        <path d="M326.903,84.086L319.273,91.221C319.034,91.444 319.022,91.819 319.245,92.057C319.468,92.296 319.842,92.308 320.081,92.085L327.711,84.95C327.95,84.727 327.962,84.353 327.739,84.114C327.516,83.876 327.142,83.863 326.903,84.086Z" style="fill:rgb(232,66,152);fill-rule:nonzero;"/>
        <path d="M338.843,110.078L325.123,109.778C324.796,109.771 324.526,110.03 324.519,110.356C324.511,110.683 324.77,110.953 325.097,110.96L338.817,111.26C339.144,111.267 339.414,111.008 339.421,110.682C339.428,110.355 339.169,110.085 338.843,110.078Z" style="fill:rgb(232,66,152);fill-rule:nonzero;"/>
        <path d="M324.87,99.049L321.804,100.414C321.506,100.547 321.372,100.896 321.505,101.195C321.637,101.493 321.987,101.627 322.285,101.494L325.351,100.129C325.65,99.997 325.784,99.647 325.651,99.349C325.518,99.05 325.169,98.916 324.87,99.049Z" style="fill:rgb(232,66,152);fill-rule:nonzero;"/>
        <path d="M339.649,92.468L328.084,97.618C327.786,97.751 327.652,98.101 327.784,98.399C327.917,98.697 328.267,98.832 328.565,98.699L340.13,93.548C340.428,93.415 340.562,93.066 340.429,92.768C340.296,92.469 339.947,92.335 339.649,92.468Z" style="fill:rgb(232,66,152);fill-rule:nonzero;"/>
        <path d="M322.593,105.372L320.946,105.694C320.626,105.757 320.417,106.067 320.48,106.388C320.542,106.708 320.853,106.917 321.174,106.855L322.82,106.532C323.141,106.47 323.35,106.159 323.287,105.838C323.224,105.518 322.913,105.309 322.593,105.372Z" style="fill:rgb(232,66,152);fill-rule:nonzero;"/>
        <path d="M336.049,102.737L325.797,104.744C325.476,104.807 325.267,105.118 325.33,105.438C325.393,105.759 325.704,105.968 326.024,105.905L336.276,103.898C336.597,103.835 336.806,103.525 336.743,103.204C336.68,102.884 336.37,102.675 336.049,102.737Z" style="fill:rgb(232,66,152);fill-rule:nonzero;"/>
        <path d="M264.499,102.848L278.102,104.661C278.426,104.704 278.723,104.477 278.766,104.153C278.81,103.83 278.582,103.532 278.258,103.489L264.655,101.675C264.332,101.632 264.034,101.86 263.991,102.183C263.948,102.507 264.175,102.805 264.499,102.848Z" style="fill:rgb(232,66,152);fill-rule:nonzero;"/>
        <path d="M277.441,116.061L280.639,115.041C280.95,114.942 281.122,114.609 281.023,114.298C280.924,113.987 280.591,113.815 280.28,113.915L277.082,114.934C276.771,115.033 276.599,115.366 276.698,115.677C276.797,115.988 277.13,116.16 277.441,116.061Z" style="fill:rgb(232,66,152);fill-rule:nonzero;"/>
        <path d="M262.027,120.97L274.09,117.128C274.401,117.029 274.573,116.696 274.474,116.385C274.375,116.074 274.042,115.902 273.731,116.001L261.668,119.843C261.357,119.942 261.185,120.275 261.284,120.586C261.383,120.897 261.716,121.069 262.027,120.97Z" style="fill:rgb(232,66,152);fill-rule:nonzero;"/>
        <path d="M280.404,110.029L282.076,109.889C282.402,109.862 282.644,109.577 282.617,109.251C282.59,108.926 282.304,108.684 281.978,108.711L280.306,108.85C279.98,108.877 279.739,109.163 279.766,109.488C279.793,109.814 280.078,110.056 280.404,110.029Z" style="fill:rgb(232,66,152);fill-rule:nonzero;"/>
        <path d="M266.739,111.16L277.15,110.297C277.475,110.27 277.717,109.985 277.69,109.659C277.663,109.333 277.378,109.092 277.052,109.119L266.641,109.982C266.316,110.009 266.074,110.294 266.101,110.62C266.128,110.946 266.413,111.188 266.739,111.16Z" style="fill:rgb(232,66,152);fill-rule:nonzero;"/>
        <path d="M273.498,83.367L284.073,92.114C284.325,92.322 284.698,92.287 284.906,92.035C285.114,91.784 285.079,91.411 284.827,91.203L274.251,82.455C274,82.247 273.627,82.282 273.419,82.534C273.211,82.786 273.246,83.158 273.498,83.367Z" style="fill:rgb(232,66,152);fill-rule:nonzero;"/>
        <path d="M277.615,100.684L280.866,101.516C281.182,101.597 281.505,101.406 281.586,101.09C281.667,100.773 281.476,100.451 281.159,100.37L277.908,99.539C277.592,99.458 277.27,99.649 277.189,99.965C277.108,100.281 277.299,100.603 277.615,100.684Z" style="fill:rgb(232,66,152);fill-rule:nonzero;"/>
        <path d="M261.941,96.68L274.207,99.814C274.523,99.895 274.846,99.704 274.926,99.388C275.007,99.071 274.816,98.749 274.5,98.669L262.234,95.534C261.918,95.453 261.596,95.644 261.515,95.96C261.433,96.277 261.625,96.599 261.941,96.68Z" style="fill:rgb(232,66,152);fill-rule:nonzero;"/>
        <path d="M283.323,97.139L284.816,97.908C285.106,98.057 285.463,97.943 285.612,97.653C285.762,97.363 285.648,97.006 285.357,96.856L283.865,96.087C283.574,95.938 283.218,96.052 283.068,96.342C282.918,96.633 283.033,96.989 283.323,97.139Z" style="fill:rgb(232,66,152);fill-rule:nonzero;"/>
        <path d="M271.136,90.858L280.422,95.643C280.712,95.793 281.069,95.679 281.219,95.388C281.368,95.098 281.254,94.741 280.964,94.592L271.678,89.807C271.388,89.657 271.031,89.771 270.882,90.061C270.732,90.352 270.846,90.708 271.136,90.858Z" style="fill:rgb(232,66,152);fill-rule:nonzero;"/>
        <path d="M326.263,135.277L317.665,124.581C317.46,124.326 317.088,124.285 316.834,124.49C316.579,124.695 316.538,125.067 316.743,125.322L325.341,136.018C325.545,136.273 325.918,136.313 326.172,136.109C326.427,135.904 326.467,135.532 326.263,135.277Z" style="fill:rgb(232,66,152);fill-rule:nonzero;"/>
        <path d="M326.006,116.783L322.988,115.315C322.694,115.172 322.34,115.295 322.197,115.588C322.054,115.882 322.177,116.236 322.47,116.379L325.489,117.847C325.782,117.99 326.136,117.868 326.279,117.574C326.422,117.28 326.3,116.926 326.006,116.783Z" style="fill:rgb(232,66,152);fill-rule:nonzero;"/>
        <path d="M340.553,123.862L329.169,118.322C328.875,118.179 328.521,118.302 328.378,118.595C328.235,118.889 328.358,119.243 328.651,119.386L340.035,124.925C340.329,125.068 340.683,124.946 340.826,124.652C340.969,124.358 340.846,124.005 340.553,123.862Z" style="fill:rgb(232,66,152);fill-rule:nonzero;"/>
        <path d="M319.7,119.108L318.394,118.053C318.14,117.848 317.767,117.888 317.562,118.142C317.357,118.396 317.397,118.769 317.651,118.974L318.957,120.028C319.211,120.233 319.583,120.193 319.788,119.939C319.993,119.685 319.954,119.313 319.7,119.108Z" style="fill:rgb(232,66,152);fill-rule:nonzero;"/>
        <path d="M330.374,127.714L322.242,121.156C321.988,120.951 321.615,120.991 321.41,121.245C321.205,121.5 321.245,121.872 321.499,122.077L329.631,128.635C329.885,128.84 330.258,128.8 330.463,128.546C330.668,128.292 330.628,127.919 330.374,127.714Z" style="fill:rgb(232,66,152);fill-rule:nonzero;"/>
        <path d="M306.307,143.173L304.686,129.546C304.647,129.221 304.353,128.99 304.029,129.028C303.704,129.067 303.473,129.361 303.511,129.686L305.132,143.313C305.171,143.637 305.465,143.868 305.79,143.83C306.114,143.791 306.345,143.497 306.307,143.173Z" style="fill:rgb(232,66,152);fill-rule:nonzero;"/>
        <path d="M315.274,127.795L313.493,124.949C313.32,124.672 312.955,124.589 312.678,124.762C312.401,124.935 312.317,125.3 312.49,125.577L314.272,128.423C314.445,128.7 314.81,128.784 315.087,128.611C315.364,128.437 315.447,128.072 315.274,127.795Z" style="fill:rgb(232,66,152);fill-rule:nonzero;"/>
        <path d="M323.857,141.508L317.139,130.777C316.966,130.5 316.601,130.417 316.324,130.59C316.047,130.763 315.964,131.128 316.137,131.405L322.855,142.135C323.028,142.412 323.393,142.496 323.67,142.323C323.947,142.15 324.03,141.785 323.857,141.508Z" style="fill:rgb(232,66,152);fill-rule:nonzero;"/>
        <path d="M308.694,126.424L308.144,124.838C308.037,124.529 307.7,124.366 307.392,124.473C307.083,124.58 306.92,124.917 307.027,125.225L307.577,126.812C307.684,127.12 308.021,127.284 308.329,127.177C308.638,127.07 308.801,126.733 308.694,126.424Z" style="fill:rgb(232,66,152);fill-rule:nonzero;"/>
        <path d="M313.185,139.379L309.764,129.51C309.657,129.201 309.32,129.038 309.011,129.145C308.703,129.252 308.539,129.589 308.646,129.897L312.067,139.767C312.174,140.075 312.511,140.239 312.82,140.132C313.128,140.025 313.292,139.688 313.185,139.379Z" style="fill:rgb(232,66,152);fill-rule:nonzero;"/>
        <path d="M281.217,138.153L288.852,126.75C289.033,126.478 288.961,126.111 288.689,125.929C288.418,125.748 288.051,125.82 287.869,126.092L280.234,137.495C280.052,137.767 280.125,138.134 280.397,138.315C280.668,138.497 281.035,138.425 281.217,138.153Z" style="fill:rgb(232,66,152);fill-rule:nonzero;"/>
        <path d="M298.787,132.377L299.285,129.057C299.334,128.734 299.111,128.433 298.788,128.384C298.465,128.336 298.164,128.558 298.116,128.881L297.618,132.202C297.569,132.525 297.792,132.826 298.115,132.874C298.438,132.923 298.739,132.7 298.787,132.377Z" style="fill:rgb(232,66,152);fill-rule:nonzero;"/>
        <path d="M296.384,148.375L298.264,135.854C298.313,135.531 298.09,135.23 297.767,135.181C297.445,135.133 297.143,135.355 297.095,135.678L295.214,148.199C295.166,148.522 295.388,148.823 295.711,148.872C296.034,148.92 296.336,148.698 296.384,148.375Z" style="fill:rgb(232,66,152);fill-rule:nonzero;"/>
        <path d="M294.683,127.055L295.299,125.494C295.418,125.19 295.269,124.846 294.966,124.727C294.662,124.607 294.318,124.756 294.198,125.06L293.583,126.621C293.463,126.925 293.612,127.268 293.916,127.388C294.22,127.508 294.563,127.359 294.683,127.055Z" style="fill:rgb(232,66,152);fill-rule:nonzero;"/>
        <path d="M289.664,139.814L293.489,130.093C293.608,129.789 293.459,129.446 293.155,129.326C292.851,129.207 292.508,129.356 292.388,129.66L288.563,139.382C288.444,139.686 288.593,140.029 288.897,140.148C289.201,140.268 289.544,140.118 289.664,139.814Z" style="fill:rgb(232,66,152);fill-rule:nonzero;"/>
        <path d="M285.068,125.431L287.251,122.881C287.463,122.633 287.434,122.26 287.186,122.047C286.938,121.835 286.565,121.864 286.352,122.112L284.169,124.662C283.957,124.91 283.986,125.284 284.234,125.496C284.482,125.708 284.855,125.679 285.068,125.431Z" style="fill:rgb(232,66,152);fill-rule:nonzero;"/>
        <path d="M274.551,137.723L282.782,128.103C282.994,127.854 282.965,127.481 282.717,127.269C282.469,127.056 282.095,127.085 281.883,127.334L273.653,136.954C273.44,137.202 273.469,137.576 273.718,137.788C273.966,138 274.339,137.971 274.551,137.723Z" style="fill:rgb(232,66,152);fill-rule:nonzero;"/>
        <path d="M284.408,118.743L285.757,117.743C286.02,117.549 286.075,117.178 285.88,116.916C285.686,116.654 285.316,116.598 285.053,116.793L283.704,117.792C283.442,117.987 283.387,118.357 283.581,118.619C283.775,118.882 284.146,118.937 284.408,118.743Z" style="fill:rgb(232,66,152);fill-rule:nonzero;"/>
        <path d="M273.391,126.903L281.785,120.685C282.047,120.49 282.102,120.12 281.908,119.857C281.713,119.595 281.343,119.54 281.081,119.734L272.687,125.953C272.425,126.147 272.369,126.518 272.564,126.78C272.758,127.042 273.129,127.098 273.391,126.903Z" style="fill:rgb(232,66,152);fill-rule:nonzero;"/>
    </g>
</svg>
